# 3ds Max Wavefront OBJ Exporter v0.97b - (c)2007 guruware
# File Created: 07.10.2019 20:29:49

#
# object Plane004
#

v  -0.5082 -0.2359 0.0532
v  -0.5148 -0.2857 0.0599
v  -0.4607 -0.2956 0.0477
v  -0.4548 -0.2430 0.0351
v  -0.4036 -0.3032 0.0388
v  -0.4000 -0.2543 0.0170
v  -0.3453 -0.3047 0.0415
v  -0.3415 -0.2582 0.0155
v  -0.2881 -0.2987 0.0560
v  -0.2911 -0.2482 0.0360
v  -0.2323 -0.2877 0.0680
v  -0.2409 -0.2346 0.0600
v  -0.1987 -0.2853 0.0323
v  -0.2001 -0.2339 0.0288
v  -0.1984 -0.2914 -0.0229
v  -0.1879 -0.2373 -0.0235
v  -0.1406 -0.3016 -0.0268
v  -0.1322 -0.2489 -0.0231
v  -0.0852 -0.3138 -0.0193
v  -0.0832 -0.2682 0.0022
v  -0.0292 -0.3240 -0.0072
v  -0.0274 -0.2738 0.0079
v  0.0296 -0.3226 0.0047
v  0.0291 -0.2724 -0.0089
v  0.0848 -0.3136 0.0232
v  0.0856 -0.2696 -0.0021
v  0.1312 -0.2993 0.0518
v  0.1313 -0.2495 0.0292
v  0.1558 -0.2757 0.0996
v  0.1557 -0.2281 0.0747
v  0.2045 -0.2729 0.1021
v  0.2033 -0.2241 0.0845
v  0.2399 -0.2896 0.0577
v  0.2398 -0.2412 0.0392
v  0.2877 -0.3018 0.0296
v  0.2858 -0.2517 0.0097
v  0.3441 -0.3040 0.0221
v  0.3450 -0.2547 0.0053
v  0.4006 -0.3021 0.0316
v  0.3983 -0.2493 0.0194
v  0.4538 -0.2958 0.0500
v  0.4505 -0.2444 0.0438
v  -0.4984 -0.1856 0.0456
v  -0.4484 -0.1970 0.0233
v  -0.3993 -0.2100 0.0011
v  -0.3417 -0.2140 -0.0046
v  -0.2870 -0.2074 0.0151
v  -0.2470 -0.1912 0.0508
v  -0.2018 -0.1843 0.0262
v  -0.1793 -0.1903 -0.0223
v  -0.1285 -0.2066 -0.0030
v  -0.0800 -0.2214 0.0213
v  -0.0246 -0.2269 0.0076
v  0.0330 -0.2265 0.0040
v  0.0854 -0.2232 -0.0197
v  0.1314 -0.2066 0.0065
v  0.1570 -0.1845 0.0540
v  0.2056 -0.1775 0.0643
v  0.2397 -0.1948 0.0220
v  0.2864 -0.2062 -0.0081
v  0.3460 -0.2075 -0.0078
v  0.3980 -0.1999 0.0105
v  0.4460 -0.1941 0.0388
v  -0.4932 -0.1361 0.0398
v  -0.4472 -0.1492 0.0114
v  -0.3961 -0.1632 -0.0141
v  -0.3377 -0.1667 -0.0175
v  -0.2835 -0.1655 -0.0103
v  -0.2492 -0.1432 0.0320
v  -0.2038 -0.1360 0.0230
v  -0.1708 -0.1400 -0.0158
v  -0.1315 -0.1629 0.0211
v  -0.0798 -0.1751 0.0113
v  -0.0228 -0.1795 0.0048
v  0.0327 -0.1773 0.0088
v  0.0801 -0.1742 -0.0207
v  0.1357 -0.1640 -0.0140
v  0.1590 -0.1395 0.0323
v  0.2059 -0.1335 0.0480
v  0.2379 -0.1489 0.0036
v  0.2871 -0.1624 -0.0164
v  0.3453 -0.1572 -0.0136
v  0.3993 -0.1534 0.0015
v  0.4430 -0.1454 0.0347
v  -0.4856 -0.0894 0.0321
v  -0.4437 -0.1039 -0.0048
v  -0.3912 -0.1147 -0.0036
v  -0.3377 -0.1189 -0.0188
v  -0.2829 -0.1178 -0.0105
v  -0.2444 -0.1030 0.0056
v  -0.2047 -0.0865 0.0189
v  -0.1662 -0.0949 0.0041
v  -0.1219 -0.1159 0.0271
v  -0.0774 -0.1271 -0.0052
v  -0.0228 -0.1315 0.0041
v  0.0288 -0.1280 0.0112
v  0.0752 -0.1246 -0.0254
v  0.1328 -0.1171 -0.0258
v  0.1645 -0.0959 0.0111
v  0.2043 -0.0871 0.0313
v  0.2368 -0.1044 -0.0142
v  0.2891 -0.1127 -0.0081
v  0.3417 -0.1111 -0.0066
v  0.3992 -0.1051 -0.0075
v  0.4382 -0.0985 0.0288
v  -0.4795 -0.0406 0.0233
v  -0.4381 -0.0548 -0.0108
v  -0.3842 -0.0667 0.0012
v  -0.3373 -0.0708 -0.0133
v  -0.2845 -0.0701 0.0037
v  -0.2401 -0.0591 -0.0165
v  -0.2086 -0.0382 0.0143
v  -0.1678 -0.0503 0.0257
v  -0.1124 -0.0678 0.0207
v  -0.0735 -0.0816 -0.0158
v  -0.0230 -0.0827 0.0032
v  0.0301 -0.0795 0.0123
v  0.0709 -0.0768 -0.0227
v  0.1236 -0.0702 -0.0151
v  0.1731 -0.0522 -0.0102
v  0.2023 -0.0383 0.0138
v  0.2426 -0.0567 -0.0257
v  0.2931 -0.0628 -0.0087
v  0.3384 -0.0637 -0.0104
v  0.3921 -0.0579 -0.0059
v  0.4343 -0.0489 0.0233
v  -0.4572 -0.0008 0.0178
v  -0.4754 -0.0166 0.0174
v  -0.4293 -0.0306 -0.0065
v  -0.4196 -0.0122 0.0054
v  -0.3791 -0.0426 0.0009
v  -0.3780 -0.0167 0.0037
v  -0.3343 -0.0428 -0.0092
v  -0.3329 -0.0196 -0.0016
v  -0.2886 -0.0456 0.0018
v  -0.2884 -0.0215 -0.0025
v  -0.2448 -0.0356 -0.0242
v  -0.2434 -0.0146 -0.0052
v  -0.2111 -0.0064 0.0102
v  -0.1979 -0.0108 -0.0097
v  -0.1599 -0.0310 0.0113
v  -0.1537 -0.0170 -0.0043
v  -0.1108 -0.0437 0.0141
v  -0.1112 -0.0244 -0.0047
v  -0.0691 -0.0544 -0.0120
v  -0.0661 -0.0285 -0.0036
v  -0.0240 -0.0541 0.0028
v  -0.0207 -0.0328 -0.0030
v  0.0279 -0.0562 0.0044
v  0.0224 -0.0336 -0.0044
v  0.0709 -0.0502 -0.0200
v  0.0678 -0.0269 -0.0046
v  0.1170 -0.0434 -0.0118
v  0.1123 -0.0208 -0.0068
v  0.1629 -0.0318 0.0008
v  0.1558 -0.0153 -0.0091
v  0.2066 -0.0154 0.0074
v  0.2010 -0.0090 -0.0118
v  0.2485 -0.0312 -0.0246
v  0.2467 -0.0129 -0.0058
v  0.2917 -0.0357 -0.0075
v  0.2904 -0.0129 -0.0025
v  0.3363 -0.0354 -0.0127
v  0.3351 -0.0132 0.0017
v  0.3874 -0.0343 0.0007
v  0.3782 -0.0094 0.0049
v  0.4321 -0.0216 0.0210
v  0.4106 -0.0061 0.0214
# 168 vertices

vn 0.3299 0.0802 0.9406
vn 0.2371 0.0983 0.9665
vn 0.2138 0.2039 0.9554
vn 0.3398 0.1856 0.9220
vn 0.0821 0.4007 0.9125
vn 0.2017 0.3578 0.9117
vn -0.1432 0.4907 0.8595
vn -0.1884 0.4495 0.8732
vn -0.2630 0.3423 0.9020
vn -0.4456 0.3759 0.8125
vn 0.2635 0.1837 0.9470
vn 0.0766 0.1889 0.9790
vn 0.9256 0.0513 0.3751
vn 0.8403 0.0590 0.5389
vn 0.6924 -0.1266 0.7103
vn 0.5993 -0.1192 0.7916
vn -0.0479 -0.0627 0.9969
vn -0.2865 -0.2121 0.9343
vn -0.2379 -0.4050 0.8828
vn -0.3394 -0.3634 0.8676
vn -0.2178 -0.2736 0.9369
vn 0.0834 -0.1481 0.9854
vn -0.2703 0.2483 0.9302
vn 0.0871 -0.0060 0.9962
vn -0.4623 0.4471 0.7657
vn -0.3901 0.3971 0.8307
vn -0.7621 0.2701 0.5885
vn -0.7849 0.2751 0.5552
vn -0.5692 0.3800 0.7291
vn -0.6242 0.3557 0.6956
vn 0.4201 0.3159 0.8507
vn 0.3326 0.3444 0.8779
vn 0.6806 0.2630 0.6839
vn 0.6899 0.2563 0.6770
vn 0.3418 0.3585 0.8687
vn 0.3386 0.3487 0.8739
vn -0.0144 0.3219 0.9467
vn -0.0945 0.2962 0.9504
vn -0.2574 0.2063 0.9440
vn -0.3494 0.1799 0.9196
vn -0.3352 0.0905 0.9378
vn -0.4279 0.0666 0.9014
vn 0.4183 0.0591 0.9064
vn 0.4408 0.1860 0.8781
vn 0.2926 0.2994 0.9082
vn -0.1151 0.3423 0.9325
vn -0.5363 0.4483 0.7152
vn -0.1742 0.2658 0.9481
vn 0.7268 0.0682 0.6835
vn 0.3453 -0.1339 0.9289
vn -0.4713 -0.3973 0.7874
vn -0.1117 -0.0882 0.9898
vn 0.1526 0.0238 0.9880
vn 0.2446 -0.1877 0.9513
vn -0.0865 0.1919 0.9776
vn -0.7481 0.3298 0.5758
vn -0.6309 0.3535 0.6907
vn 0.3451 0.3407 0.8746
vn 0.6937 0.2713 0.6673
vn 0.2926 0.2603 0.9201
vn -0.1787 0.1916 0.9651
vn -0.4338 0.1708 0.8847
vn -0.5108 0.0406 0.8587
vn 0.5345 0.0484 0.8438
vn 0.5221 0.2226 0.8233
vn 0.2558 0.0391 0.9659
vn -0.0365 0.1488 0.9882
vn -0.4913 0.2628 0.8304
vn -0.4145 0.4217 0.8064
vn 0.4996 0.0790 0.8626
vn -0.0105 -0.2684 0.9633
vn -0.3592 -0.2659 0.8946
vn 0.1843 0.2580 0.9484
vn 0.0200 0.0363 0.9991
vn 0.2483 -0.0601 0.9668
vn 0.2109 0.0773 0.9744
vn -0.6156 0.2768 0.7378
vn -0.6841 0.3651 0.6314
vn 0.3161 0.3287 0.8900
vn 0.6523 0.2993 0.6964
vn 0.1670 0.0239 0.9857
vn -0.1580 -0.0252 0.9871
vn -0.4552 0.1721 0.8736
vn -0.6089 0.0333 0.7926
vn 0.6661 0.0332 0.7451
vn 0.3696 0.1775 0.9121
vn 0.0995 -0.1684 0.9807
vn 0.0629 -0.0414 0.9972
vn -0.2481 -0.1246 0.9607
vn -0.4710 0.4799 0.7402
vn 0.0259 0.0909 0.9955
vn -0.1832 -0.4103 0.8934
vn 0.0756 -0.0198 0.9969
vn 0.2551 0.2503 0.9340
vn -0.1522 0.0162 0.9882
vn 0.2522 -0.0273 0.9673
vn 0.3234 0.0492 0.9450
vn -0.3973 -0.0189 0.9175
vn -0.6584 0.4137 0.6288
vn 0.2371 0.3367 0.9113
vn 0.4503 0.2487 0.8575
vn -0.0768 -0.0772 0.9941
vn -0.0041 -0.0379 0.9993
vn -0.3689 0.0413 0.9286
vn -0.6834 0.0246 0.7296
vn 0.6476 0.0661 0.7591
vn 0.2333 -0.0701 0.9699
vn 0.0296 -0.0506 0.9983
vn -0.0031 -0.1279 0.9918
vn 0.0796 -0.1071 0.9911
vn -0.3039 0.3544 0.8843
vn -0.4924 0.0621 0.8681
vn -0.0808 0.0828 0.9933
vn 0.4445 0.1186 0.8879
vn 0.1918 0.0320 0.9809
vn -0.2620 0.0119 0.9650
vn 0.2597 0.1470 0.9544
vn 0.2944 -0.0613 0.9537
vn -0.0722 -0.1918 0.9788
vn -0.3879 -0.0357 0.9210
vn -0.0187 0.3074 0.9514
vn 0.2344 0.0605 0.9702
vn -0.1366 -0.0137 0.9905
vn -0.0263 0.0774 0.9967
vn -0.3023 -0.1907 0.9339
vn -0.5732 0.0339 0.8187
vn 0.2218 -0.2815 0.9336
vn 0.4363 -0.0881 0.8955
vn 0.0553 -0.3699 0.9274
vn 0.0309 -0.5541 0.8319
vn 0.0447 -0.0502 0.9977
vn 0.0689 -0.1088 0.9917
vn -0.0180 -0.2243 0.9743
vn 0.0481 -0.3114 0.9490
vn 0.1136 0.1304 0.9849
vn 0.0298 0.1742 0.9843
vn -0.0326 -0.1660 0.9856
vn 0.1370 -0.6680 0.7314
vn -0.2990 0.8013 0.5182
vn 0.0716 0.9834 -0.1670
vn 0.1941 0.6131 0.7658
vn 0.0802 0.7247 0.6844
vn 0.3189 0.4417 0.8386
vn 0.0891 0.6943 0.7141
vn 0.0803 -0.2246 0.9711
vn -0.0454 -0.3032 0.9518
vn -0.1749 0.1476 0.9735
vn 0.0256 0.2577 0.9659
vn 0.2159 0.3629 0.9065
vn -0.0011 0.3654 0.9308
vn 0.1825 -0.3034 0.9352
vn 0.0989 -0.5391 0.8364
vn -0.1761 -0.2048 0.9628
vn 0.0754 -0.1992 0.9770
vn -0.1862 -0.0709 0.9799
vn -0.0192 0.5079 0.8612
vn 0.2020 0.6660 0.7181
vn -0.0495 0.9425 0.3305
vn 0.0174 -0.3683 0.9295
vn -0.1019 -0.7172 0.6893
vn -0.1367 -0.1339 0.9815
vn -0.0830 -0.2159 0.9729
vn -0.0601 -0.2381 0.9694
vn -0.0480 -0.5450 0.8370
vn -0.2834 -0.2877 0.9148
vn -0.2152 -0.2390 0.9469
vn -0.3741 -0.1447 0.9160
vn -0.3493 -0.5093 0.7865
# 168 vertex normals

vt 0.0000 0.1667 0.0000
vt 0.0000 0.0000 0.0000
vt 0.0500 0.0000 0.0000
vt 0.0500 0.1667 0.0000
vt 0.1000 0.0000 0.0000
vt 0.1000 0.1667 0.0000
vt 0.1500 0.0000 0.0000
vt 0.1500 0.1667 0.0000
vt 0.2000 0.0000 0.0000
vt 0.2000 0.1667 0.0000
vt 0.2500 0.0000 0.0000
vt 0.2500 0.1667 0.0000
vt 0.3000 0.0000 0.0000
vt 0.3000 0.1667 0.0000
vt 0.3500 0.0000 0.0000
vt 0.3500 0.1667 0.0000
vt 0.4000 0.0000 0.0000
vt 0.4000 0.1667 0.0000
vt 0.4500 0.0000 0.0000
vt 0.4500 0.1667 0.0000
vt 0.5000 0.0000 0.0000
vt 0.5000 0.1667 0.0000
vt 0.5500 0.0000 0.0000
vt 0.5500 0.1667 0.0000
vt 0.6000 0.0000 0.0000
vt 0.6000 0.1667 0.0000
vt 0.6500 0.0000 0.0000
vt 0.6500 0.1667 0.0000
vt 0.7000 0.0000 0.0000
vt 0.7000 0.1667 0.0000
vt 0.7500 0.0000 0.0000
vt 0.7500 0.1667 0.0000
vt 0.8000 0.0000 0.0000
vt 0.8000 0.1667 0.0000
vt 0.8500 0.0000 0.0000
vt 0.8500 0.1667 0.0000
vt 0.9000 0.0000 0.0000
vt 0.9000 0.1667 0.0000
vt 0.9500 0.0000 0.0000
vt 0.9500 0.1667 0.0000
vt 1.0000 0.0000 0.0000
vt 1.0000 0.1667 0.0000
vt 0.0000 0.3333 0.0000
vt 0.0500 0.3333 0.0000
vt 0.1000 0.3333 0.0000
vt 0.1500 0.3333 0.0000
vt 0.2000 0.3333 0.0000
vt 0.2500 0.3333 0.0000
vt 0.3000 0.3333 0.0000
vt 0.3500 0.3333 0.0000
vt 0.4000 0.3333 0.0000
vt 0.4500 0.3333 0.0000
vt 0.5000 0.3333 0.0000
vt 0.5500 0.3333 0.0000
vt 0.6000 0.3333 0.0000
vt 0.6500 0.3333 0.0000
vt 0.7000 0.3333 0.0000
vt 0.7500 0.3333 0.0000
vt 0.8000 0.3333 0.0000
vt 0.8500 0.3333 0.0000
vt 0.9000 0.3333 0.0000
vt 0.9500 0.3333 0.0000
vt 1.0000 0.3333 0.0000
vt 0.0000 0.5000 0.0000
vt 0.0500 0.5000 0.0000
vt 0.1000 0.5000 0.0000
vt 0.1500 0.5000 0.0000
vt 0.2000 0.5000 0.0000
vt 0.2500 0.5000 0.0000
vt 0.3000 0.5000 0.0000
vt 0.3500 0.5000 0.0000
vt 0.4000 0.5000 0.0000
vt 0.4500 0.5000 0.0000
vt 0.5000 0.5000 0.0000
vt 0.5500 0.5000 0.0000
vt 0.6000 0.5000 0.0000
vt 0.6500 0.5000 0.0000
vt 0.7000 0.5000 0.0000
vt 0.7500 0.5000 0.0000
vt 0.8000 0.5000 0.0000
vt 0.8500 0.5000 0.0000
vt 0.9000 0.5000 0.0000
vt 0.9500 0.5000 0.0000
vt 1.0000 0.5000 0.0000
vt 0.0000 0.6667 0.0000
vt 0.0500 0.6667 0.0000
vt 0.1000 0.6667 0.0000
vt 0.1500 0.6667 0.0000
vt 0.2000 0.6667 0.0000
vt 0.2500 0.6667 0.0000
vt 0.3000 0.6667 0.0000
vt 0.3500 0.6667 0.0000
vt 0.4000 0.6667 0.0000
vt 0.4500 0.6667 0.0000
vt 0.5000 0.6667 0.0000
vt 0.5500 0.6667 0.0000
vt 0.6000 0.6667 0.0000
vt 0.6500 0.6667 0.0000
vt 0.7000 0.6667 0.0000
vt 0.7500 0.6667 0.0000
vt 0.8000 0.6667 0.0000
vt 0.8500 0.6667 0.0000
vt 0.9000 0.6667 0.0000
vt 0.9500 0.6667 0.0000
vt 1.0000 0.6667 0.0000
vt 0.0000 0.8333 0.0000
vt 0.0500 0.8333 0.0000
vt 0.1000 0.8333 0.0000
vt 0.1500 0.8333 0.0000
vt 0.2000 0.8333 0.0000
vt 0.2500 0.8333 0.0000
vt 0.3000 0.8333 0.0000
vt 0.3500 0.8333 0.0000
vt 0.4000 0.8333 0.0000
vt 0.4500 0.8333 0.0000
vt 0.5000 0.8333 0.0000
vt 0.5500 0.8333 0.0000
vt 0.6000 0.8333 0.0000
vt 0.6500 0.8333 0.0000
vt 0.7000 0.8333 0.0000
vt 0.7500 0.8333 0.0000
vt 0.8000 0.8333 0.0000
vt 0.8500 0.8333 0.0000
vt 0.9000 0.8333 0.0000
vt 0.9500 0.8333 0.0000
vt 1.0000 0.8333 0.0000
vt 0.0000 1.0000 0.0000
vt 0.0000 0.9238 0.0000
vt 0.0500 0.9238 0.0000
vt 0.0500 1.0000 0.0000
vt 0.1000 0.9238 0.0000
vt 0.1000 1.0000 0.0000
vt 0.1500 0.9238 0.0000
vt 0.1500 1.0000 0.0000
vt 0.2000 0.9238 0.0000
vt 0.2000 1.0000 0.0000
vt 0.2500 0.9238 0.0000
vt 0.2500 1.0000 0.0000
vt 0.3000 0.9238 0.0000
vt 0.3000 1.0000 0.0000
vt 0.3500 0.9238 0.0000
vt 0.3500 1.0000 0.0000
vt 0.4000 0.9238 0.0000
vt 0.4000 1.0000 0.0000
vt 0.4500 0.9238 0.0000
vt 0.4500 1.0000 0.0000
vt 0.5000 0.9238 0.0000
vt 0.5000 1.0000 0.0000
vt 0.5500 0.9238 0.0000
vt 0.5500 1.0000 0.0000
vt 0.6000 0.9238 0.0000
vt 0.6000 1.0000 0.0000
vt 0.6500 0.9238 0.0000
vt 0.6500 1.0000 0.0000
vt 0.7000 0.9238 0.0000
vt 0.7000 1.0000 0.0000
vt 0.7500 0.9238 0.0000
vt 0.7500 1.0000 0.0000
vt 0.8000 0.9238 0.0000
vt 0.8000 1.0000 0.0000
vt 0.8500 0.9238 0.0000
vt 0.8500 1.0000 0.0000
vt 0.9000 0.9238 0.0000
vt 0.9000 1.0000 0.0000
vt 0.9500 0.9238 0.0000
vt 0.9500 1.0000 0.0000
vt 1.0000 0.9238 0.0000
vt 1.0000 1.0000 0.0000
# 168 texture coords

o Plane004
g Plane004
s 1
f 1/1/1 2/2/2 3/3/3 4/4/4 
f 4/4/4 3/3/3 5/5/5 6/6/6 
f 6/6/6 5/5/5 7/7/7 8/8/8 
f 8/8/8 7/7/7 9/9/9 10/10/10 
f 10/10/10 9/9/9 11/11/11 12/12/12 
f 12/12/12 11/11/11 13/13/13 14/14/14 
f 14/14/14 13/13/13 15/15/15 16/16/16 
f 16/16/16 15/15/15 17/17/17 18/18/18 
f 18/18/18 17/17/17 19/19/19 20/20/20 
f 20/20/20 19/19/19 21/21/21 22/22/22 
f 22/22/22 21/21/21 23/23/23 24/24/24 
f 24/24/24 23/23/23 25/25/25 26/26/26 
f 26/26/26 25/25/25 27/27/27 28/28/28 
f 28/28/28 27/27/27 29/29/29 30/30/30 
f 30/30/30 29/29/29 31/31/31 32/32/32 
f 32/32/32 31/31/31 33/33/33 34/34/34 
f 34/34/34 33/33/33 35/35/35 36/36/36 
f 36/36/36 35/35/35 37/37/37 38/38/38 
f 38/38/38 37/37/37 39/39/39 40/40/40 
f 40/40/40 39/39/39 41/41/41 42/42/42 
f 43/43/43 1/1/1 4/4/4 44/44/44 
f 44/44/44 4/4/4 6/6/6 45/45/45 
f 45/45/45 6/6/6 8/8/8 46/46/46 
f 46/46/46 8/8/8 10/10/10 47/47/47 
f 47/47/47 10/10/10 12/12/12 48/48/48 
f 48/48/48 12/12/12 14/14/14 49/49/49 
f 49/49/49 14/14/14 16/16/16 50/50/50 
f 50/50/50 16/16/16 18/18/18 51/51/51 
f 51/51/51 18/18/18 20/20/20 52/52/52 
f 52/52/52 20/20/20 22/22/22 53/53/53 
f 53/53/53 22/22/22 24/24/24 54/54/54 
f 54/54/54 24/24/24 26/26/26 55/55/55 
f 55/55/55 26/26/26 28/28/28 56/56/56 
f 56/56/56 28/28/28 30/30/30 57/57/57 
f 57/57/57 30/30/30 32/32/32 58/58/58 
f 58/58/58 32/32/32 34/34/34 59/59/59 
f 59/59/59 34/34/34 36/36/36 60/60/60 
f 60/60/60 36/36/36 38/38/38 61/61/61 
f 61/61/61 38/38/38 40/40/40 62/62/62 
f 62/62/62 40/40/40 42/42/42 63/63/63 
f 64/64/64 43/43/43 44/44/44 65/65/65 
f 65/65/65 44/44/44 45/45/45 66/66/66 
f 66/66/66 45/45/45 46/46/46 67/67/67 
f 67/67/67 46/46/46 47/47/47 68/68/68 
f 68/68/68 47/47/47 48/48/48 69/69/69 
f 69/69/69 48/48/48 49/49/49 70/70/70 
f 70/70/70 49/49/49 50/50/50 71/71/71 
f 71/71/71 50/50/50 51/51/51 72/72/72 
f 72/72/72 51/51/51 52/52/52 73/73/73 
f 73/73/73 52/52/52 53/53/53 74/74/74 
f 74/74/74 53/53/53 54/54/54 75/75/75 
f 75/75/75 54/54/54 55/55/55 76/76/76 
f 76/76/76 55/55/55 56/56/56 77/77/77 
f 77/77/77 56/56/56 57/57/57 78/78/78 
f 78/78/78 57/57/57 58/58/58 79/79/79 
f 79/79/79 58/58/58 59/59/59 80/80/80 
f 80/80/80 59/59/59 60/60/60 81/81/81 
f 81/81/81 60/60/60 61/61/61 82/82/82 
f 82/82/82 61/61/61 62/62/62 83/83/83 
f 83/83/83 62/62/62 63/63/63 84/84/84 
f 85/85/85 64/64/64 65/65/65 86/86/86 
f 86/86/86 65/65/65 66/66/66 87/87/87 
f 87/87/87 66/66/66 67/67/67 88/88/88 
f 88/88/88 67/67/67 68/68/68 89/89/89 
f 89/89/89 68/68/68 69/69/69 90/90/90 
f 90/90/90 69/69/69 70/70/70 91/91/91 
f 91/91/91 70/70/70 71/71/71 92/92/92 
f 92/92/92 71/71/71 72/72/72 93/93/93 
f 93/93/93 72/72/72 73/73/73 94/94/94 
f 94/94/94 73/73/73 74/74/74 95/95/95 
f 95/95/95 74/74/74 75/75/75 96/96/96 
f 96/96/96 75/75/75 76/76/76 97/97/97 
f 97/97/97 76/76/76 77/77/77 98/98/98 
f 98/98/98 77/77/77 78/78/78 99/99/99 
f 99/99/99 78/78/78 79/79/79 100/100/100 
f 100/100/100 79/79/79 80/80/80 101/101/101 
f 101/101/101 80/80/80 81/81/81 102/102/102 
f 102/102/102 81/81/81 82/82/82 103/103/103 
f 103/103/103 82/82/82 83/83/83 104/104/104 
f 104/104/104 83/83/83 84/84/84 105/105/105 
f 106/106/106 85/85/85 86/86/86 107/107/107 
f 107/107/107 86/86/86 87/87/87 108/108/108 
f 108/108/108 87/87/87 88/88/88 109/109/109 
f 109/109/109 88/88/88 89/89/89 110/110/110 
f 110/110/110 89/89/89 90/90/90 111/111/111 
f 111/111/111 90/90/90 91/91/91 112/112/112 
f 112/112/112 91/91/91 92/92/92 113/113/113 
f 113/113/113 92/92/92 93/93/93 114/114/114 
f 114/114/114 93/93/93 94/94/94 115/115/115 
f 115/115/115 94/94/94 95/95/95 116/116/116 
f 116/116/116 95/95/95 96/96/96 117/117/117 
f 117/117/117 96/96/96 97/97/97 118/118/118 
f 118/118/118 97/97/97 98/98/98 119/119/119 
f 119/119/119 98/98/98 99/99/99 120/120/120 
f 120/120/120 99/99/99 100/100/100 121/121/121 
f 121/121/121 100/100/100 101/101/101 122/122/122 
f 122/122/122 101/101/101 102/102/102 123/123/123 
f 123/123/123 102/102/102 103/103/103 124/124/124 
f 124/124/124 103/103/103 104/104/104 125/125/125 
f 125/125/125 104/104/104 105/105/105 126/126/126 
f 127/127/127 128/128/128 129/129/129 130/130/130 
f 130/130/130 129/129/129 131/131/131 132/132/132 
f 132/132/132 131/131/131 133/133/133 134/134/134 
f 134/134/134 133/133/133 135/135/135 136/136/136 
f 136/136/136 135/135/135 137/137/137 138/138/138 
f 138/138/138 137/137/137 139/139/139 140/140/140 
f 140/140/140 139/139/139 141/141/141 142/142/142 
f 142/142/142 141/141/141 143/143/143 144/144/144 
f 144/144/144 143/143/143 145/145/145 146/146/146 
f 146/146/146 145/145/145 147/147/147 148/148/148 
f 148/148/148 147/147/147 149/149/149 150/150/150 
f 150/150/150 149/149/149 151/151/151 152/152/152 
f 152/152/152 151/151/151 153/153/153 154/154/154 
f 154/154/154 153/153/153 155/155/155 156/156/156 
f 156/156/156 155/155/155 157/157/157 158/158/158 
f 158/158/158 157/157/157 159/159/159 160/160/160 
f 160/160/160 159/159/159 161/161/161 162/162/162 
f 162/162/162 161/161/161 163/163/163 164/164/164 
f 164/164/164 163/163/163 165/165/165 166/166/166 
f 166/166/166 165/165/165 167/167/167 168/168/168 
f 128/128/128 106/106/106 107/107/107 129/129/129 
f 129/129/129 107/107/107 108/108/108 131/131/131 
f 131/131/131 108/108/108 109/109/109 133/133/133 
f 133/133/133 109/109/109 110/110/110 135/135/135 
f 135/135/135 110/110/110 111/111/111 137/137/137 
f 137/137/137 111/111/111 112/112/112 139/139/139 
f 139/139/139 112/112/112 113/113/113 141/141/141 
f 141/141/141 113/113/113 114/114/114 143/143/143 
f 143/143/143 114/114/114 115/115/115 145/145/145 
f 145/145/145 115/115/115 116/116/116 147/147/147 
f 147/147/147 116/116/116 117/117/117 149/149/149 
f 149/149/149 117/117/117 118/118/118 151/151/151 
f 151/151/151 118/118/118 119/119/119 153/153/153 
f 153/153/153 119/119/119 120/120/120 155/155/155 
f 155/155/155 120/120/120 121/121/121 157/157/157 
f 157/157/157 121/121/121 122/122/122 159/159/159 
f 159/159/159 122/122/122 123/123/123 161/161/161 
f 161/161/161 123/123/123 124/124/124 163/163/163 
f 163/163/163 124/124/124 125/125/125 165/165/165 
f 165/165/165 125/125/125 126/126/126 167/167/167 
# 140 polygons

